<svg viewBox="0 0 1024 384" version="1.1" xmlns="http://www.w3.org/2000/svg" xmlns:xlink="http://www.w3.org/1999/xlink">
    <g id="Login-/-Tablet" stroke="none" stroke-width="1" fill="none" fill-rule="evenodd" transform="translate(0.000000, -384.000000)">
        <g id="Pattern" transform="translate(-132.000000, 384.000000)">
            <g>
                <rect id="Rectangle-2" fill="#3E566D" opacity="0.302932518" transform="translate(434.177072, 357.042958) rotate(20.000000) translate(-434.177072, -357.042958) " x="319.755339" y="273.8212" width="228.843465" height="166.443515"></rect>
                <rect id="Rectangle-2-Copy" fill="#44707A" opacity="0.351052989" transform="translate(962.731839, 250.678940) rotate(30.000000) translate(-962.731839, -250.678940) " x="912.313175" y="214.008197" width="100.837329" height="73.3414845"></rect>
                <rect id="Rectangle-2-Copy-2" fill="#44707A" opacity="0.351052989" transform="translate(483.190635, 253.277509) rotate(70.000000) translate(-483.190635, -253.277509) " x="432.77197" y="216.606767" width="100.837329" height="73.3414845"></rect>
                <rect id="Rectangle-2-Copy-3" fill="#3A9DB4" opacity="0.11645154" transform="translate(870.970766, 348.959761) rotate(70.000000) translate(-870.970766, -348.959761) " x="768.271983" y="274.264395" width="205.397565" height="149.390732"></rect>
                <rect id="Rectangle-2-Copy-14" fill="#3A63B4" opacity="0.11645154" transform="translate(736.414484, 477.286116) rotate(29.000000) translate(-736.414484, -477.286116) " x="573.106495" y="358.508175" width="326.615978" height="237.555882"></rect>
                <rect id="Rectangle-2-Copy-15" fill="#3AAFB4" opacity="0.11645154" transform="translate(541.537163, 484.919403) rotate(69.000000) translate(-541.537163, -484.919403) " x="378.229174" y="366.141462" width="326.615978" height="237.555882"></rect>
                <rect id="Rectangle-2-Copy-23" fill="#B43A3A" opacity="0.143285779" transform="translate(802.486240, 513.960986) rotate(55.000000) translate(-802.486240, -513.960986) " x="639.178252" y="395.183045" width="326.615978" height="237.555882"></rect>
                <rect id="Rectangle-2-Copy-24" fill="#B43A3A" opacity="0.143285779" transform="translate(485.626058, 513.960986) rotate(35.000000) translate(-485.626058, -513.960986) " x="322.318069" y="395.183045" width="326.615978" height="237.555882"></rect>
                <rect id="Rectangle-2-Copy-25" fill="#B43A3A" opacity="0.143285779" transform="translate(100.536717, 236.255862) rotate(60.000000) translate(-100.536717, -236.255862) " x="27.9690179" y="183.475578" width="145.135398" height="105.560566"></rect>
                <rect id="Rectangle-2-Copy-16" fill="#3AAFB4" opacity="0.11645154" transform="translate(1055.791000, 420.789948) rotate(49.000000) translate(-1055.791000, -420.789948) " x="892.483011" y="302.012007" width="326.615978" height="237.555882"></rect>
                <rect id="Rectangle-2-Copy-17" fill="#3A79B4" opacity="0.11645154" transform="translate(864.399191, 485.016912) rotate(89.000000) translate(-864.399191, -485.016912) " x="701.091202" y="366.238971" width="326.615978" height="237.555882"></rect>
                <rect id="Rectangle-2-Copy-18" fill="#3A79B4" opacity="0.235224185" transform="translate(316.739617, 463.678000) rotate(49.000000) translate(-316.739617, -463.678000) " x="153.431628" y="344.900059" width="326.615978" height="237.555882"></rect>
                <rect id="Rectangle-2-Copy-4" fill="#416682" opacity="0.170969203" transform="translate(712.540675, 324.775661) rotate(20.000000) translate(-712.540675, -324.775661) " x="609.841892" y="250.080295" width="205.397565" height="149.390732"></rect>
                <rect id="Rectangle-2-Copy-5" fill="#416682" opacity="0.351052989" transform="translate(877.427602, 140.266857) rotate(10.000000) translate(-877.427602, -140.266857) " x="852.778187" y="122.338726" width="49.2988316" height="35.8562601"></rect>
                <rect id="Rectangle-2-Copy-6" fill="#417D82" opacity="0.351052989" transform="translate(599.198060, 228.112831) rotate(5.000000) translate(-599.198060, -228.112831) " x="584.122792" y="217.148215" width="30.1505373" height="21.9292318"></rect>
                <rect id="Rectangle-2-Copy-21" fill="#417D82" opacity="0.0855978261" transform="translate(701.982263, 159.188317) rotate(45.000000) translate(-701.982263, -159.188317) " x="686.906995" y="148.223701" width="30.1505373" height="21.9292318"></rect>
                <rect id="Rectangle-2-Copy-22" fill="#417D82" opacity="0.0855978261" transform="translate(928.869801, 10.598343) rotate(45.000000) translate(-928.869801, -10.598343) " x="918.566068" y="3.10418266" width="20.6074658" height="14.9883198"></rect>
                <rect id="Rectangle-2-Copy-12" fill="#417D82" opacity="0.125509511" transform="translate(419.252772, 27.527057) rotate(5.000000) translate(-419.252772, -27.527057) " x="404.177503" y="16.5624411" width="30.1505373" height="21.9292318"></rect>
                <rect id="Rectangle-2-Copy-19" fill="#415D82" opacity="0.125509511" transform="translate(352.751252, 188.280195) rotate(5.000000) translate(-352.751252, -188.280195) " x="337.675983" y="177.315579" width="30.1505373" height="21.9292318"></rect>
                <rect id="Rectangle-2-Copy-20" fill="#417D82" opacity="0.125509511" transform="translate(1031.457939, 161.250906) rotate(5.000000) translate(-1031.457939, -161.250906) " x="1016.38267" y="150.286291" width="30.1505373" height="21.9292318"></rect>
                <rect id="Rectangle-2-Copy-13" fill="#417D82" opacity="0.125509511" transform="translate(1013.854595, 71.627475) rotate(5.000000) translate(-1013.854595, -71.627475) " x="998.779327" y="60.6628595" width="30.1505373" height="21.9292318"></rect>
                <rect id="Rectangle-2-Copy-7" fill="#416682" opacity="0.163609601" transform="translate(817.002430, 228.619389) rotate(80.000000) translate(-817.002430, -228.619389) " x="790.484585" y="209.332304" width="53.0356905" height="38.5741701"></rect>
                <rect id="Rectangle-2-Copy-8" fill="#416682" opacity="0.163609601" transform="translate(450.059798, 98.301971) rotate(40.000000) translate(-450.059798, -98.301971) " x="423.541953" y="79.0148857" width="53.0356905" height="38.5741701"></rect>
                <rect id="Rectangle-2-Copy-9" fill="#416682" opacity="0.163609601" transform="translate(700.418461, 243.406573) rotate(40.000000) translate(-700.418461, -243.406573) " x="673.900616" y="224.119488" width="53.0356905" height="38.5741701"></rect>
                <rect id="Rectangle-2-Copy-10" fill="#418279" opacity="0.163609601" transform="translate(912.199507, 135.682846) rotate(20.000000) translate(-912.199507, -135.682846) " x="885.681662" y="116.395761" width="53.0356905" height="38.5741701"></rect>
                <rect id="Rectangle-2-Copy-11" fill="#418279" opacity="0.163609601" transform="translate(845.308346, 293.307401) rotate(30.000000) translate(-845.308346, -293.307401) " x="799.256163" y="259.812508" width="92.1043674" height="66.9897855"></rect>
            </g>
        </g>
    </g>
</svg>