<svg viewBox="0 0 772 422" xmlns="http://www.w3.org/2000/svg">
    <g>
        <path d="M403.446224,228.243504 C405.805142,239.412113 400.015233,250.705716 389.57,255.31 C386.518997,274.586044 369.162597,288.278117 349.705891,286.757899 C330.249185,285.23768 315.230048,269.015995 315.21,249.5 L315.21,163.08 C315.166236,154.261635 308.028365,147.123764 299.21,147.08 L265.6,147.08 C255.388279,147.07694 245.570851,143.137075 238.19,136.08 L237.48,135.37 C226.103196,123.994242 222.698646,106.885665 228.853719,92.0211223 C235.008791,77.1565792 249.511509,67.4629988 265.6,67.46 L444.93,67.46 C461.019964,67.446464 475.529493,77.1387729 481.678104,92.0075895 C487.826714,106.876406 484.400273,123.985667 473,135.34 L472.29,136.05 C464.909149,143.107075 455.091721,147.04694 444.88,147.05 L410.79,147.05 C401.953444,147.05 394.79,154.213444 394.79,163.05 C394.79,171.886556 401.953444,179.05 410.79,179.05 L444.93,179.05 C484.586806,179.049999 516.734999,146.901806 516.734999,107.245 C516.734999,67.588194 484.586806,35.4400006 444.93,35.44 L346.93,35.44 C341.816632,45.4144297 330.508036,50.5544552 319.630938,47.8480723 C308.753839,45.1416895 301.172523,35.301575 301.329566,24.0939383 C301.486609,12.8863017 309.340657,3.26246971 320.289314,0.861912519 C331.237972,-1.53864467 342.398111,3.9162159 347.23,14.03 L444.94,14.03 C496.418462,14.03 538.15,55.7615385 538.15,107.24 C538.15,158.718462 496.418462,200.45 444.94,200.45 L410.79,200.45 C390.129028,200.45 373.38,183.700972 373.38,163.04 C373.38,142.379028 390.129028,125.63 410.79,125.63 L444.93,125.63 C448.960603,125.625407 452.876811,124.289537 456.07,121.83 L457.94,120.24 C463.172953,114.971006 464.730187,107.075012 461.88954,100.213757 C459.048893,93.3525026 452.365989,88.8680308 444.94,88.84 L265.6,88.84 C258.16458,88.8486914 251.465154,93.331602 248.620918,100.201527 C245.776682,107.071451 247.346706,114.978019 252.6,120.24 L254.36,122.01 C257.688876,124.302559 261.593159,125.627415 265.61,125.63 L299.23,125.63 C319.872718,125.674003 336.595997,142.397282 336.64,163.04 L336.64,249.46 C336.668335,257.352519 342.447688,264.045356 350.251854,265.223344 C358.05602,266.401331 365.553357,261.712522 367.91,254.18 C358.376795,248.774009 353.683947,237.622476 356.483192,227.026677 C359.282437,216.430877 368.87068,209.052186 379.83,209.06 C391.224997,209.087192 401.087305,217.074895 403.446224,228.243504 Z M379.81,223.02 C385.45435,223.02 390.03,227.59565 390.03,233.24 C390.03,238.88435 385.45435,243.46 379.81,243.46 C374.16565,243.46 369.59,238.88435 369.59,233.24 C369.584689,230.526024 370.659091,227.921386 372.576288,226.000436 C374.493486,224.079487 377.096019,222.999995 379.81,223 L379.81,223.02 Z M325.44,14.25 C329.574514,14.250002 333.301728,16.7411084 334.883002,20.5612885 C336.464276,24.3814686 335.588062,28.7780564 332.663088,31.7001677 C329.738115,34.622279 325.340672,35.4941888 321.522041,33.9091757 C317.703411,32.3241626 315.215954,28.5945118 315.22,24.46 C315.225519,18.8195555 319.799553,14.2499973 325.44,14.25 Z" id="Shape" fill="#43C0B8"></path>
        <path d="M59.34,369.31 L59.34,354.94 L0.9,354.94 L0.9,369.31 L22.4,369.31 L22.4,420.38 L37.83,420.38 L37.83,369.31 L59.34,369.31 Z M89.15,387.66 C89.1132676,392.352304 90.007166,397.005334 91.78,401.35 C93.4453862,405.403652 95.9385511,409.065062 99.1,412.1 C102.292116,415.167626 106.066357,417.564779 110.2,419.15 C119.233029,422.498335 129.166971,422.498335 138.2,419.15 C142.333643,417.564779 146.107884,415.167626 149.3,412.1 C152.461223,409.064872 154.954354,405.403512 156.62,401.35 C160.1264,392.570486 160.1264,382.779514 156.62,374 C154.944605,369.951744 152.45276,366.292273 149.3,363.25 C146.108834,360.176264 142.334698,357.772377 138.2,356.18 C129.171474,352.806651 119.228526,352.806651 110.2,356.18 C106.065302,357.772377 102.291166,360.176264 99.1,363.25 C95.9431973,366.290958 93.4478362,369.950594 91.77,374 C89.9990449,378.331236 89.1051167,382.970826 89.14,387.65 L89.15,387.66 Z M104.81,387.66 C104.750847,384.038949 105.607341,380.461627 107.3,377.26 C108.860489,374.356281 111.211119,371.953647 114.08,370.33 C120.390156,366.953972 127.969844,366.953972 134.28,370.33 C137.156326,371.957213 139.519014,374.358009 141.1,377.26 C144.451069,383.816636 144.451069,391.583364 141.1,398.14 C139.53086,401.068755 137.166893,403.495113 134.28,405.14 C127.969844,408.516028 120.390156,408.516028 114.08,405.14 C111.200756,403.498323 108.848929,401.070182 107.3,398.14 C105.602377,394.911467 104.745993,391.307088 104.81,387.66 Z M237.46,420.38 L255.1,420.38 L229.62,380.76 L253.69,354.93 L234.53,354.93 L215.13,376.67 C213.47,378.5 212.07,380.08 210.88,381.38 C209.69,382.68 208.82,383.66 208.23,384.26 L207.88,384.26 L208,370.35 L208,354.94 L192.58,354.94 L192.58,420.38 L208,420.38 L208,402.38 L218.4,391.16 L237.4,420.38 L237.46,420.38 Z M286.32,420.38 L336.57,420.38 L336.57,406 L301.73,406 L301.73,393.85 L326.86,393.85 L326.86,380.18 L301.73,380.18 L301.73,369.31 L336,369.31 L336,354.94 L286.31,354.94 L286.31,420.38 L286.32,420.38 Z M432.41,420.38 L432.41,354.94 L417,354.94 L417,382.64 C417,384.32 417,385.91 417,387.43 C417,388.95 417,390.31 417,391.52 C417,392.73 417,393.66 417,394.36 C417,395.06 417,395.45 417,395.49 L416.65,395.49 L387.2,354.94 L371.39,354.94 L371.39,420.38 L386.82,420.38 L386.82,393.27 C386.82,391.38 386.82,389.57 386.82,387.86 C386.82,386.15 386.82,384.57 386.74,383.21 C386.66,381.85 386.68,380.76 386.66,379.96 C386.64,379.16 386.66,378.71 386.66,378.67 L387.01,378.67 L416.46,420.39 L432.41,420.38 Z M471.8,354.94 L471.8,420.38 L478.23,420.38 L478.23,394.09 L491.44,394.09 C496.110709,394.204091 500.757482,393.388271 505.11,391.69 C508.526068,390.361843 511.451448,388.015953 513.49,384.97 C517.28,378.540276 517.28,370.559724 513.49,364.13 C511.444432,361.076523 508.523228,358.713066 505.11,357.35 C500.76111,355.637885 496.112191,354.818288 491.44,354.94 L471.8,354.94 Z M478.23,388.48 L478.23,360.9 L491.67,360.9 C495.09724,360.803086 498.510614,361.373679 501.72,362.58 C504.16016,363.509914 506.254988,365.16832 507.72,367.33 C509.95429,370.600789 510.575461,374.711792 509.407281,378.496692 C508.239102,382.281592 505.40904,385.327399 501.72,386.77 C498.513254,387.988778 495.099374,388.569647 491.67,388.48 L478.23,388.48 Z M551.74,420.38 L593.8,420.38 L593.8,414.3 L558.15,414.3 L558.15,354.94 L551.72,354.94 L551.72,420.38 L551.74,420.38 Z M671.53,401.21 L679.48,420.38 L686.26,420.38 L658.68,354.94 L651.3,354.94 L623.6,420.38 L630.38,420.38 L638.21,401.21 L671.53,401.21 Z M669.08,395.48 L640.68,395.48 L647.11,379.82 C649.683333,373.666667 651.61,369 652.89,365.82 C654.17,362.64 654.813333,361.003333 654.82,360.91 L655,360.91 C655,360.97 655.64,362.49 656.79,365.49 C657.94,368.49 659.79,373.01 662.24,379.03 L669.02,395.51 L669.08,395.48 Z M745.63,420.37 L745.63,392.1 L771.11,354.94 L764.11,354.94 L752.66,371.65 L742.73,385.91 L742.61,385.91 C742.55,385.85 742.12,385.21 741.29,383.98 C740.46,382.75 739.29,381.08 737.86,378.98 C736.43,376.88 734.72,374.42 732.8,371.68 L721.35,354.97 L713.75,354.97 L739.11,392.13 L739.11,420.41 L745.63,420.37 Z" id="Shape" fill="#FFFFFF" fill-rule="nonzero"></path>
    </g>
</svg>